<svg width="180" height="180" viewBox="0 0 180 180" fill="none" xmlns="http://www.w3.org/2000/svg">
<g clip-path="url(#clip0_17_3492)">
<circle cx="90" cy="90" r="90" fill="#FEC110"/>
<g clip-path="url(#clip1_17_3492)">
<path d="M-152.263 86.208V62.4262L-155.819 52.8689L-150.929 54.2024L-146.262 62.426L-129.593 64.204L-116.923 62.426C-116.923 62.426 -65.5799 37.7552 -14.2408 37.7552C12.6527 37.7552 27.301 39.2213 41.0129 44.0234C48.0354 46.4907 54.8151 49.802 62.8837 54.2473L62.8857 54.2677C69.8205 58.091 77.6892 62.7585 87.4688 68.382L89.6016 69.6056C90.3133 70.0276 91.0477 70.4273 91.7794 70.8494C92.8909 71.4937 123.784 71.2939 147.122 75.0723C170.459 78.8506 185.35 88.1853 185.35 88.1853L188.462 95.7424L191.351 98.4094L189.129 120.191L195.129 127.748H155.365V107.767C155.365 91.565 142.23 78.4069 126.005 78.4069C109.78 78.4069 96.6448 91.5426 96.6448 107.767V127.748H-42.2492V107.767C-42.2492 91.565 -55.3847 78.4069 -71.6096 78.4069C-87.8119 78.4069 -100.97 91.5426 -100.97 107.767V123.615L-158.291 114.213V91.5421L-152.263 86.208ZM75.2665 114.879C77.0222 114.879 78.578 113.746 79.1571 112.08L85.6476 92.631C86.0472 91.4075 85.4029 90.0741 84.1591 89.652C83.9144 89.5623 83.6697 89.5398 83.425 89.5398L79.557 89.5418L72.4447 114.879L75.2665 114.879ZM-10.6808 71.9835L66.8885 75.095V66.4272C66.8885 66.4272 40.2174 47.0908 14.8779 47.0908H-15.1267L-10.6808 71.9835ZM-72.4699 70.6499H-26.4603V47.0904C-44.9078 47.0904 -77.1371 61.0926 -77.1371 61.0926L-72.4699 70.6499Z" fill="#2C2C2C"/>
<path d="M136.836 107.787L139.124 107.832V107.765C139.124 106.054 138.79 104.364 138.145 102.763L133.633 104.631C134.032 105.61 134.255 106.676 134.255 107.743V107.787L136.836 107.787Z" fill="#2C2C2C"/>
<path d="M133.61 110.919C133.188 111.921 132.589 112.83 131.832 113.586L135.278 117.053C136.502 115.829 137.456 114.386 138.123 112.808L133.61 110.919Z" fill="#2C2C2C"/>
<path d="M131.83 101.962L135.297 98.5159C134.073 97.2925 132.652 96.3158 131.052 95.649L129.161 100.161C130.164 100.586 131.074 101.207 131.83 101.962Z" fill="#2C2C2C"/>
<path d="M126.01 115.988V120.878C127.721 120.878 129.434 120.543 131.012 119.876L129.144 115.364C128.145 115.788 127.077 115.988 126.01 115.988Z" fill="#2C2C2C"/>
<path d="M120.451 107.767C120.451 110.835 122.938 113.323 126.007 113.323C129.076 113.323 131.564 110.836 131.564 107.767C131.564 104.698 129.076 102.21 126.007 102.21C122.939 102.21 120.451 104.698 120.451 107.767Z" fill="#2C2C2C"/>
<path d="M126.01 99.5398H126.032V94.6501H126.01C124.299 94.6501 122.609 94.9846 121.031 95.6289L122.899 100.164C123.877 99.7396 124.943 99.5398 126.01 99.5398Z" fill="#2C2C2C"/>
<path d="M120.184 113.587L116.718 117.033C117.941 118.256 119.385 119.211 120.964 119.877L122.831 115.365C121.853 114.943 120.964 114.343 120.184 113.587Z" fill="#2C2C2C"/>
<path d="M116.765 98.4541C115.542 99.6552 114.566 101.099 113.899 102.699L118.411 104.59C118.833 103.588 119.433 102.699 120.211 101.923L116.765 98.4541Z" fill="#2C2C2C"/>
<path d="M117.783 107.72H112.893V107.765C112.893 109.475 113.228 111.188 113.895 112.787L118.408 110.919C117.986 109.918 117.786 108.851 117.786 107.785L117.783 107.72Z" fill="#2C2C2C"/>
<path d="M126.01 81.0923C140.747 81.0923 152.681 93.0268 152.681 107.763C152.681 122.499 140.747 134.435 126.01 134.435C111.273 134.435 99.3394 122.5 99.3394 107.763C99.3394 93.0273 111.273 81.0923 126.01 81.0923ZM126.01 122.432C134.123 122.432 140.679 115.875 140.679 107.763C140.679 99.6494 134.122 93.0937 126.01 93.0937C117.896 93.0937 111.341 99.651 111.341 107.763C111.341 115.876 117.898 122.432 126.01 122.432Z" fill="#2C2C2C"/>
<path d="M136.836 107.787L139.124 107.832V107.765C139.124 106.054 138.79 104.364 138.145 102.763L133.633 104.631C134.032 105.61 134.255 106.676 134.255 107.743V107.787L136.836 107.787Z" fill="#2C2C2C"/>
<path d="M133.61 110.919C133.188 111.921 132.589 112.83 131.832 113.586L135.278 117.053C136.502 115.829 137.456 114.386 138.123 112.808L133.61 110.919Z" fill="#2C2C2C"/>
<path d="M131.83 101.962L135.297 98.5159C134.073 97.2925 132.652 96.3158 131.052 95.649L129.161 100.161C130.164 100.586 131.074 101.207 131.83 101.962Z" fill="#2C2C2C"/>
<path d="M126.01 115.988V120.878C127.721 120.878 129.434 120.543 131.012 119.876L129.144 115.364C128.145 115.788 127.077 115.988 126.01 115.988Z" fill="#2C2C2C"/>
<path d="M120.451 107.767C120.451 110.835 122.938 113.323 126.007 113.323C129.076 113.323 131.564 110.836 131.564 107.767C131.564 104.698 129.076 102.21 126.007 102.21C122.939 102.21 120.451 104.698 120.451 107.767Z" fill="#2C2C2C"/>
<path d="M126.01 99.5398H126.032V94.6501H126.01C124.299 94.6501 122.609 94.9846 121.031 95.6289L122.899 100.164C123.877 99.7396 124.943 99.5398 126.01 99.5398Z" fill="#2C2C2C"/>
<path d="M120.184 113.587L116.718 117.033C117.941 118.256 119.385 119.211 120.964 119.877L122.831 115.365C121.853 114.943 120.964 114.343 120.184 113.587Z" fill="#2C2C2C"/>
<path d="M118.431 104.588C118.853 103.586 119.453 102.697 120.231 101.92L116.785 98.4541C115.562 99.6552 114.585 101.099 113.918 102.699L118.431 104.588Z" fill="#2C2C2C"/>
<path d="M112.898 107.72V107.765C112.898 109.475 113.232 111.188 113.899 112.787L118.411 110.919C117.989 109.918 117.789 108.851 117.789 107.785V107.74H112.898V107.72Z" fill="#2C2C2C"/>
<path d="M120.451 107.767C120.451 110.835 122.938 113.323 126.007 113.323C129.076 113.323 131.564 110.836 131.564 107.767C131.564 104.698 129.076 102.21 126.007 102.21C122.939 102.21 120.451 104.698 120.451 107.767Z" fill="#2C2C2C"/>
<path d="M126.01 115.988C127.076 115.988 128.143 115.788 129.144 115.366L131.012 119.879C129.433 120.523 127.723 120.88 126.01 120.88V115.988ZM120.187 113.588C120.943 114.345 121.855 114.966 122.854 115.366L120.986 119.878C119.407 119.212 117.964 118.255 116.741 117.034L120.187 113.588ZM133.612 110.921L138.125 112.811C137.458 114.389 136.501 115.833 135.28 117.056L131.834 113.59C132.591 112.834 133.19 111.922 133.612 110.921ZM117.787 107.767C117.787 108.855 117.986 109.922 118.408 110.901L113.897 112.768C113.23 111.168 112.895 109.479 112.895 107.746V107.701L117.787 107.699V107.767ZM138.147 102.787C138.792 104.365 139.126 106.076 139.126 107.789V107.856L136.836 107.811L134.234 107.809V107.764C134.234 106.698 134.034 105.652 133.612 104.653L138.147 102.787ZM116.765 98.4521L120.211 101.918C119.433 102.675 118.833 103.586 118.411 104.586L113.899 102.695C114.585 101.119 115.542 99.6755 116.765 98.4521ZM131.057 95.6749C132.636 96.3417 134.079 97.3203 135.302 98.5418L131.836 101.988C131.08 101.231 130.168 100.609 129.169 100.187L131.057 95.6749ZM126.011 94.6513H126.033V99.541H126.011C124.944 99.541 123.878 99.7408 122.899 100.163L121.031 95.628C122.61 94.9857 124.3 94.6513 126.011 94.6513Z" fill="#2C2C2C"/>
</g>
<path d="M47.7 153.9L73.1799 18.9H107.153L132.3 153.9H104.822L100.325 125.4H80.5074L75.8444 153.9H47.7ZM83.172 107.567H97.494L90.333 54.9L83.172 107.567Z" fill="white"/>
</g>
<defs>
<clipPath id="clip0_17_3492">
<rect width="180" height="180" rx="90" fill="white"/>
</clipPath>
<clipPath id="clip1_17_3492">
<rect width="180" height="98.1" fill="white" transform="translate(0 36.9)"/>
</clipPath>
</defs>
</svg>
