<svg xmlns="http://www.w3.org/2000/svg">

  <symbol viewBox="0 0 24 24" fill="none" id="arrow-menu">
    <g clip-path="url(#clip0_25_916)">
      <path d="M6 10L12 16L18 10" stroke="black" stroke-width="1.5" stroke-linecap="round" stroke-linejoin="round" />
    </g>
    <defs>
      <clipPath id="clip0_25_916">
        <rect width="24" height="24" fill="white" />
      </clipPath>
    </defs>
  </symbol>

  <symbol viewBox="0 0 36 24" fill="none" id="burger-menu">
    <path d="M3 12H27M3 6H33M3 18H33" stroke="#2C2C2C" stroke-width="1.5" stroke-miterlimit="10"
      stroke-linecap="round" />
  </symbol>

  <symbol viewBox="0 0 20 20" fill="none" id="arrow-bottom">
    <g clip-path="url(#clip0_4314_161)">
      <path d="M10 4.16675V15.8334M10 15.8334L15 10.8334M10 15.8334L5 10.8334" stroke="#2C2C2C" stroke-width="1.5"
        stroke-linecap="round" stroke-linejoin="round" />
    </g>
    <defs>
      <clipPath id="clip0_4314_161">
        <rect width="20" height="20" rx="10" fill="white" />
      </clipPath>
    </defs>
  </symbol>

  <symbol viewBox="0 0 40 41" fill="none" id="arrow-service">
    <circle cx="20" cy="20.0015" r="20" fill="#FEC110" />
    <g clip-path="url(#clip0_4314_1158)">
      <path d="M18 14.0015L24 20.0015L18 26.0015" stroke="#2C2C2C" stroke-width="1.5" stroke-linecap="round"
        stroke-linejoin="round" />
    </g>
    <defs>
      <clipPath id="clip0_4314_1158">
        <rect x="8" y="8.00146" width="24" height="24" rx="12" fill="white" />
      </clipPath>
    </defs>
  </symbol>

  <symbol viewBox="0 0 60 61" fill="none" id="benefits-icon__shield">
    <path
      d="M30 2.31226L7.5 11.2198V30.1515C7.50732 34.9772 8.78108 39.7167 11.194 43.896C13.6069 48.0752 17.0744 51.548 21.25 53.9672L30 59.0175L38.75 53.9662C42.9255 51.5472 46.393 48.0745 48.8058 43.8955C51.2188 39.7162 52.4925 34.9772 52.5 30.1515V11.2198L30 2.31226ZM50 30.1515C49.9932 34.5385 48.8353 38.847 46.6418 42.6462C44.4483 46.4452 41.296 49.6022 37.5 51.8015L30 56.1312L22.5 51.8015C18.704 49.6022 15.5517 46.4455 13.3582 42.6462C11.1646 38.847 10.0067 34.5385 10 30.1515V12.9188L30 5.00152L50 12.9193V30.1515ZM22.5465 25.9227L20.7787 27.6902L28.4938 35.405L39.69 24.2113L37.9222 22.4438L28.4938 31.87L22.5465 25.9227Z"
      fill="#FEC110" />
  </symbol>

  <symbol viewBox="0 0 60 61" fill="none" id="benefits-icon__man">
    <path
      d="M30 26.0765C31.8955 26.0765 33.7485 25.5145 35.3245 24.4614C36.9005 23.4083 38.129 21.9115 38.8543 20.1603C39.5798 18.4091 39.7695 16.4821 39.3995 14.6231C39.0297 12.764 38.117 11.0564 36.7765 9.71611C35.4362 8.37584 33.7285 7.46316 31.8695 7.09346C30.0102 6.72379 28.0832 6.91369 26.3322 7.63919C24.581 8.36469 23.0843 9.59319 22.0314 11.1693C20.9785 12.7455 20.4166 14.5984 20.4168 16.4939C20.4199 19.0345 21.4306 21.4701 23.2272 23.2665C25.0237 25.063 27.4595 26.0735 30 26.0765ZM30 9.40969C31.401 9.40964 32.7705 9.82501 33.9352 10.6033C35.1002 11.3816 36.0082 12.4878 36.5445 13.7821C37.0805 15.0764 37.221 16.5006 36.9478 17.8747C36.6745 19.2487 36 20.5109 35.0095 21.5016C34.0188 22.4923 32.7567 23.167 31.3827 23.4405C30.0087 23.7139 28.5845 23.5737 27.29 23.0377C25.9958 22.5017 24.8894 21.5939 24.1109 20.4291C23.3325 19.2643 22.9169 17.8949 22.9168 16.4939C22.9189 14.616 23.6659 12.8156 24.9938 11.4877C26.3218 10.1598 28.122 9.41286 30 9.41069V9.40969ZM49.2675 38.979C45.529 35.238 40.7762 32.6747 35.5965 31.6062L30 40.1912L24.4035 31.6072C19.2239 32.676 14.471 35.239 10.7325 38.98L10 39.7125V52.5015H50V39.7125L49.2675 38.979ZM47.5 50.0015H12.5V40.7587C12.5277 40.7337 12.8 40.464 12.828 40.439C15.7784 37.5752 19.409 35.5097 23.378 34.4362L26.293 38.8445L28.8878 42.7787L30 44.459L31.125 42.764L33.6908 38.8727L36.623 34.4362C40.592 35.5095 44.2227 37.5752 47.173 40.439C47.2012 40.464 47.473 40.7335 47.501 40.7587L47.5 50.0015Z"
      fill="#FEC110" />
  </symbol>

  <symbol viewBox="0 0 60 61" fill="none" id="benefits-icon__mug">
    <path fill-rule="evenodd" clip-rule="evenodd"
      d="M35 52.5015L37.7864 50.0015H60V51.2515C54.9077 52.0897 49.755 52.5077 44.5942 52.5015H35ZM10.0135 7.50146L12.4404 30.0015L14.9066 29.5564L12.7978 10.0015H47.2025L44.5395 34.69C44.4828 35.2223 44.3778 35.7447 44.2274 36.2515L46.3934 37.6478C46.7112 36.7869 46.9249 35.8841 47.0248 34.958L47.29 32.5015H48.292C50.7592 32.5015 53.1393 31.5895 54.9748 29.9407C56.81 28.292 57.9712 26.023 58.2347 23.57L58.681 19.42C58.7748 18.5478 58.684 17.6657 58.4145 16.831C58.145 15.9963 57.7027 15.2276 57.1165 14.575C56.5305 13.9225 55.8135 13.4006 55.0125 13.0433C54.2112 12.6861 53.344 12.5014 52.4668 12.5015H49.4473L49.9865 7.50146H10.0135ZM49.1775 15.0015H52.4668C52.993 15.0015 53.5132 15.1122 53.9937 15.3265C54.4745 15.5408 54.9045 15.8538 55.2563 16.2453C55.6078 16.6367 55.8732 17.0977 56.035 17.5984C56.1967 18.0991 56.2515 18.6283 56.1952 19.1515L55.75 23.303C55.555 25.144 54.6847 26.8475 53.3075 28.0845C51.9302 29.3217 50.1432 30.0045 48.292 30.0015H47.5595L49.1775 15.0015Z"
      fill="#FEC110" />
    <mask id="path-2-inside-1_17_4209" fill="white">
      <path
        d="M7.20775 48.4631L9.00073 50.2561C10.5714 48.6579 12.4446 47.3884 14.5111 46.5219C16.5775 45.6554 18.796 45.2091 21.0367 45.2091C23.2775 45.2091 25.496 45.6554 27.5625 46.5219C29.629 47.3884 31.5022 48.6579 33.0727 50.2561L34.8657 48.4629C33.054 46.6394 30.8992 45.1921 28.526 44.2046C26.1525 43.2171 23.6075 42.7086 21.0367 42.7086C18.4662 42.7086 15.9209 43.2171 13.5475 44.2046C11.1742 45.1921 9.01957 46.6394 7.20775 48.4629V48.4631ZM14.438 55.6934L16.1865 57.4419C16.821 56.8006 17.5762 56.2914 18.4087 55.9439C19.2412 55.5964 20.1345 55.4176 21.0365 55.4176C21.9387 55.4176 22.8317 55.5964 23.6642 55.9439C24.4967 56.2914 25.252 56.8006 25.8865 57.4419L27.6347 55.6934C26.7752 54.8146 25.7487 54.1161 24.6155 53.6394C23.4822 53.1626 22.2655 52.9171 21.036 52.9171C19.8067 52.9171 18.5897 53.1626 17.4565 53.6394C16.3232 54.1161 15.2968 54.8146 14.4373 55.6934H14.438ZM0 41.2554L1.78675 43.0421C4.3041 40.4949 7.30192 38.4726 10.6065 37.0924C13.9111 35.7124 17.4567 35.0016 21.038 35.0016C24.6192 35.0016 28.165 35.7124 31.4695 37.0924C34.774 38.4726 37.772 40.4949 40.2892 43.0421L42.075 41.2564C39.319 38.4819 36.0415 36.2801 32.431 34.7776C28.8207 33.275 24.9487 32.5015 21.0382 32.5015C17.1275 32.5015 13.2556 33.275 9.64515 34.7776C6.03473 36.2801 2.7572 38.4819 0.00124991 41.2564L0 41.2554Z" />
    </mask>
    <path
      d="M7.20775 48.4631L9.00073 50.2561C10.5714 48.6579 12.4446 47.3884 14.5111 46.5219C16.5775 45.6554 18.796 45.2091 21.0367 45.2091C23.2775 45.2091 25.496 45.6554 27.5625 46.5219C29.629 47.3884 31.5022 48.6579 33.0727 50.2561L34.8657 48.4629C33.054 46.6394 30.8992 45.1921 28.526 44.2046C26.1525 43.2171 23.6075 42.7086 21.0367 42.7086C18.4662 42.7086 15.9209 43.2171 13.5475 44.2046C11.1742 45.1921 9.01957 46.6394 7.20775 48.4629V48.4631ZM14.438 55.6934L16.1865 57.4419C16.821 56.8006 17.5762 56.2914 18.4087 55.9439C19.2412 55.5964 20.1345 55.4176 21.0365 55.4176C21.9387 55.4176 22.8317 55.5964 23.6642 55.9439C24.4967 56.2914 25.252 56.8006 25.8865 57.4419L27.6347 55.6934C26.7752 54.8146 25.7487 54.1161 24.6155 53.6394C23.4822 53.1626 22.2655 52.9171 21.036 52.9171C19.8067 52.9171 18.5897 53.1626 17.4565 53.6394C16.3232 54.1161 15.2968 54.8146 14.4373 55.6934H14.438ZM0 41.2554L1.78675 43.0421C4.3041 40.4949 7.30192 38.4726 10.6065 37.0924C13.9111 35.7124 17.4567 35.0016 21.038 35.0016C24.6192 35.0016 28.165 35.7124 31.4695 37.0924C34.774 38.4726 37.772 40.4949 40.2892 43.0421L42.075 41.2564C39.319 38.4819 36.0415 36.2801 32.431 34.7776C28.8207 33.275 24.9487 32.5015 21.0382 32.5015C17.1275 32.5015 13.2556 33.275 9.64515 34.7776C6.03473 36.2801 2.7572 38.4819 0.00124991 41.2564L0 41.2554Z"
      fill="#FEC110" />
    <path
      d="M7.20775 48.4631H6.20775V48.8773L6.50064 49.1702L7.20775 48.4631ZM9.00073 50.2561L8.29361 50.9632L9.00691 51.6765L9.71397 50.957L9.00073 50.2561ZM14.5111 46.5219L14.8977 47.4441L14.8978 47.4441L14.5111 46.5219ZM33.0727 50.2561L32.3595 50.957L33.0666 51.6766L33.7799 50.9632L33.0727 50.2561ZM34.8657 48.4629L35.5729 49.1699L36.2776 48.4651L35.5751 47.758L34.8657 48.4629ZM28.526 44.2046L28.9101 43.2814L28.9101 43.2813L28.526 44.2046ZM7.20775 48.4629L6.49838 47.758L6.20775 48.0505V48.4629H7.20775ZM14.438 55.6934L15.1451 54.9863L14.8522 54.6934H14.438V55.6934ZM16.1865 57.4419L15.4794 58.149L16.1902 58.8598L16.8973 58.1452L16.1865 57.4419ZM25.8865 57.4419L25.1756 58.1452L25.8828 58.8599L26.5936 58.1489L25.8865 57.4419ZM27.6347 55.6934L28.3419 56.4004L29.0411 55.7011L28.3496 54.9941L27.6347 55.6934ZM14.4373 55.6934L13.7224 54.9941L12.0602 56.6934H14.4373V55.6934ZM0 41.2554L0.624332 40.4742L-0.707107 41.9625L0 41.2554ZM1.78675 43.0421L1.07964 43.7492L1.79094 44.4605L2.49802 43.745L1.78675 43.0421ZM10.6065 37.0924L10.2212 36.1696L10.2211 36.1696L10.6065 37.0924ZM31.4695 37.0924L31.8549 36.1696L31.8548 36.1696L31.4695 37.0924ZM40.2892 43.0421L39.5779 43.745L40.285 44.4605L40.9963 43.7492L40.2892 43.0421ZM42.075 41.2564L42.7821 41.9635L43.4868 41.2587L42.7844 40.5516L42.075 41.2564ZM32.431 34.7776L32.0467 35.7008L32.0468 35.7008L32.431 34.7776ZM9.64515 34.7776L10.0294 35.7008L10.0294 35.7008L9.64515 34.7776ZM0.00124991 41.2564L-0.623082 42.0375L0.0781243 42.598L0.710724 41.9611L0.00124991 41.2564ZM6.50064 49.1702L8.29361 50.9632L9.70784 49.549L7.91486 47.756L6.50064 49.1702ZM9.71397 50.957C11.1915 49.4535 12.9538 48.2592 14.8977 47.4441L14.1244 45.5997C11.9354 46.5175 9.95117 47.8622 8.28748 49.5552L9.71397 50.957ZM14.8978 47.4441C16.8417 46.6289 18.9287 46.2091 21.0367 46.2091V44.2091C18.6632 44.2091 16.3132 44.6818 14.1243 45.5997L14.8978 47.4441ZM21.0367 46.2091C23.1447 46.2091 25.2317 46.6289 27.1758 47.4441L27.9492 45.5997C25.7602 44.6818 23.4102 44.2091 21.0367 44.2091V46.2091ZM27.1758 47.4441C29.1198 48.2592 30.882 49.4535 32.3595 50.957L33.786 49.5552C32.1224 47.8622 30.1381 46.5175 27.9492 45.5997L27.1758 47.4441ZM33.7799 50.9632L35.5729 49.1699L34.1586 47.7558L32.3656 49.5491L33.7799 50.9632ZM35.5751 47.758C33.6704 45.841 31.4051 44.3195 28.9101 43.2814L28.1418 45.1279C30.3933 46.0647 32.4375 47.4377 34.1563 49.1677L35.5751 47.758ZM28.9101 43.2813C26.4149 42.2432 23.7394 41.7086 21.0367 41.7086V43.7086C23.4756 43.7086 25.89 44.191 28.1418 45.1279L28.9101 43.2813ZM21.0367 41.7086C18.3343 41.7086 15.6584 42.2432 13.1634 43.2813L13.9317 45.1279C16.1833 44.191 18.5981 43.7086 21.0367 43.7086V41.7086ZM13.1634 43.2813C10.6683 44.3195 8.40313 45.841 6.49838 47.758L7.91712 49.1677C9.63602 47.4377 11.6801 46.0647 13.9317 45.1279L13.1634 43.2813ZM6.20775 48.4629V48.4631H8.20775V48.4629H6.20775ZM13.7309 56.4005L15.4794 58.149L16.8936 56.7348L15.1451 54.9863L13.7309 56.4005ZM16.8973 58.1452C17.4389 57.5978 18.0835 57.1632 18.7939 56.8667L18.0235 55.021C17.0689 55.4195 16.203 56.0034 15.4756 56.7385L16.8973 58.1452ZM18.7939 56.8667C19.5043 56.5702 20.2666 56.4176 21.0365 56.4176V54.4176C20.0024 54.4176 18.9782 54.6225 18.0235 55.021L18.7939 56.8667ZM21.0365 56.4176C21.8066 56.4176 22.5687 56.5702 23.279 56.8667L24.0494 55.021C23.0948 54.6225 22.0708 54.4176 21.0365 54.4176V56.4176ZM23.279 56.8667C23.9894 57.1632 24.634 57.5978 25.1756 58.1452L26.5973 56.7385C25.8699 56.0034 25.004 55.4195 24.0494 55.021L23.279 56.8667ZM26.5936 58.1489L28.3419 56.4004L26.9276 54.9863L25.1793 56.7348L26.5936 58.1489ZM28.3496 54.9941C27.3971 54.0202 26.2594 53.246 25.0033 52.7176L24.2277 54.5611C25.2381 54.9862 26.1534 55.609 26.9198 56.3926L28.3496 54.9941ZM25.0033 52.7176C23.7472 52.1892 22.3986 51.9171 21.036 51.9171V53.9171C22.1323 53.9171 23.2172 54.136 24.2277 54.5611L25.0033 52.7176ZM21.036 51.9171C19.6736 51.9171 18.3247 52.1892 17.0687 52.7176L17.8442 54.5611C18.8547 54.136 19.9399 53.9171 21.036 53.9171V51.9171ZM17.0687 52.7176C15.8126 53.2461 14.675 54.0202 13.7224 54.9941L15.1521 56.3926C15.9187 55.609 16.8339 54.9862 17.8442 54.5611L17.0687 52.7176ZM14.4373 56.6934H14.438V54.6934H14.4373V56.6934ZM-0.707107 41.9625L1.07964 43.7492L2.49386 42.335L0.707107 40.5483L-0.707107 41.9625ZM2.49802 43.745C4.92235 41.2919 7.80941 39.3444 10.9919 38.0151L10.2211 36.1696C6.79444 37.6009 3.68585 39.6978 1.07548 42.3392L2.49802 43.745ZM10.9919 38.0151C14.1744 36.6861 17.589 36.0016 21.038 36.0016V34.0016C17.3244 34.0016 13.6478 34.7386 10.2212 36.1696L10.9919 38.0151ZM21.038 36.0016C24.4869 36.0016 27.9017 36.6861 31.0841 38.0151L31.8548 36.1696C28.4283 34.7386 24.7515 34.0016 21.038 34.0016V36.0016ZM31.0841 38.0151C34.2665 39.3444 37.1537 41.2919 39.5779 43.745L41.0005 42.3392C38.3902 39.6978 35.2815 37.6009 31.8549 36.1696L31.0841 38.0151ZM40.9963 43.7492L42.7821 41.9635L41.3679 40.5493L39.5821 42.335L40.9963 43.7492ZM42.7844 40.5516C39.9355 37.6835 36.5474 35.4075 32.8152 33.8543L32.0468 35.7008C35.5355 37.1527 38.7025 39.2802 41.3655 41.9611L42.7844 40.5516ZM32.8152 33.8543C29.0832 32.3011 25.0806 31.5015 21.0382 31.5015V33.5015C24.8168 33.5015 28.5583 34.2489 32.0467 35.7008L32.8152 33.8543ZM21.0382 31.5015C16.9956 31.5015 12.9931 32.3011 9.26092 33.8543L10.0294 35.7008C13.518 34.2489 17.2594 33.5015 21.0382 33.5015V31.5015ZM9.26093 33.8543C5.52875 35.4075 2.14069 37.6835 -0.708225 40.5516L0.710724 41.9611C3.37371 39.2802 6.5407 37.1527 10.0294 35.7008L9.26093 33.8543ZM0.625581 40.4752L0.624332 40.4742L-0.624332 42.0365L-0.623082 42.0375L0.625581 40.4752Z"
      fill="#FEC110" mask="url(#path-2-inside-1_17_4209)" />
  </symbol>

  <symbol viewBox="0 0 60 61" fill="none" id="benefits-icon__car">
    <path
      d="M56.648 12.4863L59.7052 10.2906C59.4995 9.31347 59.1472 8.37309 58.6602 7.50134C58.149 6.64354 57.511 5.86809 56.7675 5.20134L53.3375 6.75134L53.3105 6.73609L52.9383 2.99084C51.0343 2.33834 48.9673 2.33834 47.0633 2.99084L46.6895 6.73634L46.6625 6.75134L43.2325 5.20134C42.4893 5.86819 41.851 6.64361 41.3398 7.50134C40.8528 8.37299 40.5005 9.31329 40.2948 10.2903L43.352 12.4861V12.5163L40.2948 14.7121C40.5005 15.6892 40.8528 16.6296 41.3398 17.5013C41.851 18.3591 42.4893 19.1345 43.2325 19.8013L46.6625 18.2513L46.6895 18.2663L47.0617 22.0118C48.9657 22.6643 51.0328 22.6643 52.9368 22.0118L53.3098 18.2666L53.3375 18.2513L56.7675 19.8013C57.5108 19.1344 58.1487 18.359 58.6602 17.5013C59.1472 16.6298 59.4995 15.6895 59.7052 14.7126L56.648 12.5163V12.4863ZM57.541 15.4663C57.2725 16.2291 56.8645 16.9354 56.338 17.5493L54.109 16.5426L53.209 16.1623L52.377 16.6408L51.5415 17.1213L51.4463 18.0803L51.2035 20.5143C50.4087 20.6634 49.5933 20.6634 48.7985 20.5143L48.5558 18.0803L48.4342 17.1053L47.5978 16.6263L46.7658 16.1478L45.8908 16.5431L43.6618 17.5501C43.1353 16.9362 42.7273 16.2298 42.4588 15.4668L44.4455 14.0398L45.2268 13.4486V11.5243L44.4455 10.9631L42.4588 9.53634C42.7273 8.77341 43.1353 8.06701 43.6618 7.45309L45.8908 8.46009L46.7968 8.84234L47.631 8.35759L48.46 7.87634L48.5548 6.92259L48.7975 4.48859C49.5923 4.33991 50.4078 4.33991 51.2025 4.48859L51.4453 6.92259L51.5675 7.89959L52.406 8.37959L53.2373 8.85459L54.109 8.46059L56.338 7.45384C56.8648 8.06762 57.2725 8.77394 57.541 9.53684L55.5543 10.9638L54.773 11.5551V13.4786L55.5543 14.0398L57.541 15.4663ZM50 10.6263C49.6292 10.6263 49.2668 10.7363 48.9583 10.9423C48.65 11.1484 48.4098 11.4412 48.2678 11.7838C48.1258 12.1264 48.0888 12.5034 48.161 12.8671C48.2335 13.2308 48.412 13.5649 48.6742 13.8272C48.9365 14.0894 49.2705 14.268 49.6343 14.3403C49.998 14.4127 50.375 14.3755 50.7175 14.2336C51.0603 14.0917 51.353 13.8514 51.559 13.543C51.765 13.2347 51.875 12.8722 51.875 12.5013C51.875 12.0041 51.6775 11.5271 51.3258 11.1755C50.9743 10.8239 50.4972 10.6263 50 10.6263ZM15.9028 39.6707C15.2396 39.671 14.5914 39.8675 14.04 40.236C13.4887 40.6045 13.0589 41.1282 12.8052 41.741C12.5515 42.3535 12.4851 43.0277 12.6145 43.6782C12.7439 44.3285 13.0633 44.926 13.5322 45.395C14.0011 45.8637 14.5986 46.183 15.249 46.3125C15.8994 46.4417 16.5736 46.3755 17.1862 46.1215C17.7989 45.8677 18.3226 45.438 18.691 44.8867C19.0594 44.3352 19.256 43.687 19.256 43.0237C19.2561 42.5835 19.1694 42.1475 19.0009 41.7407C18.8323 41.3337 18.5853 40.9642 18.274 40.6527C17.9626 40.3415 17.5929 40.0945 17.186 39.926C16.7792 39.7575 16.3431 39.6707 15.9028 39.6707ZM15.9028 44.3767C15.6352 44.3767 15.3736 44.2975 15.1511 44.1487C14.9286 44.0002 14.7552 43.7887 14.6528 43.5417C14.5504 43.2945 14.5236 43.0222 14.5758 42.76C14.628 42.4975 14.7569 42.2562 14.9461 42.0672C15.1353 41.878 15.3764 41.749 15.6388 41.6967C15.9013 41.6447 16.1733 41.6715 16.4206 41.7737C16.6678 41.8762 16.8791 42.0497 17.0278 42.2722C17.1764 42.4947 17.2558 42.7562 17.2558 43.0237C17.2552 43.3825 17.1124 43.7262 16.8588 43.9797C16.6052 44.2332 16.2614 44.376 15.9028 44.3762V44.3767ZM37.1833 39.6707C36.52 39.6707 35.8718 39.8675 35.3205 40.2357C34.769 40.6042 34.3393 41.128 34.0853 41.7405C33.8315 42.3532 33.765 43.0275 33.8945 43.6777C34.0238 44.3282 34.343 44.9257 34.812 45.3947C35.281 45.8637 35.8783 46.183 36.5288 46.3125C37.1793 46.4417 37.8535 46.3755 38.466 46.1217C39.0788 45.868 39.6025 45.4382 39.971 44.8867C40.3393 44.3352 40.536 43.687 40.536 43.0237C40.536 42.1347 40.1828 41.282 39.554 40.653C38.9253 40.0242 38.0725 39.671 37.1833 39.6707ZM37.1833 44.3767C36.9158 44.3767 36.6543 44.2975 36.4318 44.1487C36.2093 44 36.0358 43.7887 35.9335 43.5415C35.831 43.2942 35.8043 43.0222 35.8565 42.7597C35.9088 42.4972 36.0378 42.2562 36.227 42.067C36.4163 41.8777 36.6573 41.749 36.9198 41.6967C37.182 41.6447 37.4543 41.6715 37.7013 41.774C37.9485 41.8762 38.1598 42.0497 38.3085 42.2722C38.4573 42.4947 38.5365 42.7562 38.5365 43.0237C38.536 43.3825 38.3933 43.7262 38.1395 43.98C37.8858 44.2335 37.542 44.376 37.1833 44.3762V44.3767ZM42.6715 26.0862C42.416 25.1337 41.8748 24.2822 41.1205 23.6465C40.3663 23.0109 39.4355 22.6217 38.4533 22.5313C38.3063 22.5116 37.9768 22.5013 37.825 22.5013H15.263C15.1283 22.5013 14.813 22.5093 14.682 22.5251C13.6904 22.6063 12.7481 22.9921 11.9843 23.6296C11.2204 24.2671 10.6723 25.1252 10.415 26.0862C10.0978 27.2612 9.83653 28.4485 9.57653 29.6362H3.57178V35.2247L8.35953 36.8872C8.02853 39.579 7.84225 42.2862 7.80153 44.9977C7.79553 45.3185 7.79303 46.1277 7.79303 46.4477V54.8347C7.79303 55.0515 7.8357 55.266 7.91863 55.4662C8.00155 55.6665 8.12308 55.8485 8.2763 56.0015C8.42953 56.1547 8.61143 56.2762 8.8116 56.3592C9.01178 56.4422 9.22635 56.4847 9.44303 56.4847H13.2203C13.437 56.4847 13.6515 56.4422 13.8517 56.3592C14.0519 56.2762 14.2338 56.1547 14.387 56.0015C14.5402 55.8485 14.6618 55.6665 14.7447 55.4662C14.8276 55.266 14.8703 55.0515 14.8703 54.8347V52.5012H38.2163V54.8355C38.2163 55.2732 38.39 55.693 38.6995 56.0022C39.009 56.3117 39.4288 56.4855 39.8663 56.4855H43.6438C44.0815 56.4855 44.501 56.3117 44.8105 56.0022C45.12 55.693 45.2938 55.2732 45.2938 54.8355V46.448C45.2938 46.132 45.2912 45.328 45.2857 45.012C45.2455 42.2957 45.059 39.5835 44.7272 36.887L49.515 35.2247V29.636H43.5095C43.25 28.4485 42.9883 27.2612 42.6715 26.0862ZM8.65603 34.608L5.82153 33.624V31.886H9.11978C8.95003 32.791 8.79203 33.6975 8.65603 34.608ZM12.8283 26.737C12.9519 26.2737 13.2158 25.8597 13.5838 25.552C13.9518 25.2442 14.406 25.058 14.884 25.0182L15.2638 25.0013H37.825C37.9043 25.0013 38.0643 25.0037 38.163 25.0135C38.6463 25.0502 39.1065 25.2347 39.4813 25.5425C39.8558 25.85 40.1265 26.2655 40.2565 26.7322C40.9818 29.4487 41.5505 32.2047 41.9595 34.9862H11.1268C11.5358 32.2062 12.1039 29.452 12.8283 26.737ZM40.548 54.1532L40.536 50.0012H12.55L12.5378 54.1532H10.293C10.293 54.1532 10.2968 45.3075 10.3015 45.0427C10.3407 42.461 10.516 39.883 10.8265 37.3195H42.259C42.5698 39.8812 42.745 42.4577 42.784 45.0377L42.7913 54.1532H40.548ZM47.2645 31.886V33.624L44.43 34.6082C44.2937 33.6977 44.1357 32.791 43.966 31.886H47.2645Z"
      fill="#FEC110" />
  </symbol>

  <symbol viewBox="0 0 24 25" fill="none" id="user-logo">
    <g clip-path="url(#clip0_17_4311)">
      <path
        d="M6.16797 18.8519C6.41548 18.0282 6.92194 17.3061 7.61222 16.7929C8.30249 16.2797 9.13982 16.0027 9.99997 16.0029H14C14.8612 16.0026 15.6996 16.2803 16.3904 16.7947C17.0811 17.3091 17.5874 18.0327 17.834 18.8579M21 12.0029C21 16.9735 16.9706 21.0029 12 21.0029C7.02944 21.0029 3 16.9735 3 12.0029C3 7.03237 7.02944 3.00293 12 3.00293C16.9706 3.00293 21 7.03237 21 12.0029ZM15 10.0029C15 11.6598 13.6569 13.0029 12 13.0029C10.3431 13.0029 9 11.6598 9 10.0029C9 8.34608 10.3431 7.00293 12 7.00293C13.6569 7.00293 15 8.34608 15 10.0029Z"
        stroke="#2C2C2C" stroke-width="1.5" stroke-linecap="round" stroke-linejoin="round" />
    </g>
    <defs>
      <clipPath id="clip0_17_4311">
        <rect width="24" height="24" fill="white" transform="translate(0 0.00292969)" />
      </clipPath>
    </defs>
  </symbol>

  <symbol viewBox="0 0 16 17" fill="none" id="full-rating">
    <g clip-path="url(#clip0_17_4283)">
      <path fill-rule="evenodd" clip-rule="evenodd"
        d="M7.99544 1.00427C8.12232 1.00427 8.2382 1.07631 8.29435 1.19009L10.2741 5.20153L14.7006 5.84305C14.8262 5.86126 14.9306 5.94925 14.9698 6.06999C15.009 6.19072 14.9762 6.32325 14.8853 6.4118L11.6776 9.53412L12.434 13.9432C12.4554 14.0684 12.404 14.1948 12.3012 14.2694C12.1985 14.3439 12.0623 14.3537 11.95 14.2945L7.99993 12.213L4.04056 14.2946C3.92825 14.3537 3.79216 14.3439 3.68951 14.2693C3.58686 14.1947 3.53545 14.0683 3.5569 13.9432L4.31325 9.53412L1.1056 6.4118C1.01463 6.32325 0.98186 6.19072 1.02107 6.06999C1.06028 5.94925 1.16466 5.86126 1.29029 5.84305L5.71678 5.20153L7.69652 1.19009C7.75268 1.07631 7.86856 1.00427 7.99544 1.00427Z"
        fill="#FEC110" stroke="#FEC110" stroke-linecap="round" stroke-linejoin="round" />
    </g>
    <defs>
      <clipPath id="clip0_17_4283">
        <rect width="16" height="16" fill="white" transform="translate(0 0.00292969)" />
      </clipPath>
    </defs>
  </symbol>

  <symbol viewBox="0 0 16 17" fill="none" id="empty-rating">
    <g clip-path="url(#clip0_25_1335)">
      <path
        d="M8.00001 11.8363L3.88535 13.9996L4.67135 9.41765L1.33801 6.17298L5.93801 5.50631L7.99535 1.33765L10.0527 5.50631L14.6527 6.17298L11.3193 9.41765L12.1053 13.9996L8.00001 11.8363Z"
        stroke="#989898" stroke-width="1.5" stroke-linecap="round" stroke-linejoin="round" />
    </g>
    <defs>
      <clipPath id="clip0_25_1335">
        <rect width="16" height="16" fill="white" transform="translate(0 0.00292969)" />
      </clipPath>
    </defs>
  </symbol>

  <symbol viewBox="0 0 20 20" fill="none" id="arrow-button">
    <g clip-path="url(#clip0_4347_1111)">
      <path d="M8.33337 5L13.3334 10L8.33337 15" stroke="#2C2C2C" stroke-width="1.5" stroke-linecap="round"
        stroke-linejoin="round" />
    </g>
    <defs>
      <clipPath id="clip0_4347_1111">
        <rect width="20" height="20" rx="10" fill="white" />
      </clipPath>
    </defs>
  </symbol>

  <symbol viewBox="0 0 24 25" fill="none" id="pebble-icon">
    <g clip-path="url(#clip0_25_1364)">
      <path d="M5 12.0015L10 17.0015L20 7.00146" stroke="#2C2C2C" stroke-width="1.5" stroke-linecap="round"
        stroke-linejoin="round" />
    </g>
    <defs>
      <clipPath id="clip0_25_1364">
        <rect width="24" height="24" fill="white" transform="translate(0 0.00146484)" />
      </clipPath>
    </defs>
  </symbol>

  <symbol viewBox="0 0 60 60" fill="none" id="vk-icon">
    <circle cx="30" cy="30" r="29.5" stroke="white" />
    <g clip-path="url(#clip0_92_2572)">
      <path
        d="M29.2517 32.1644V25.3843H30.1524V28.8253V29.9386L31.2594 29.8195C32.4672 29.6896 33.5825 28.9635 34.4438 28.0565C35.1496 27.3132 35.7471 26.3854 36.141 25.3843H37.0126C36.3225 27.1775 34.9185 28.5163 33.8786 29.1175L32.2208 30.076L33.9547 30.8887C35.0028 31.3801 36.6201 32.5645 37.5729 34.616H36.4982C35.5829 32.5011 33.7167 30.8525 31.2514 30.6072L30.1524 30.4978V31.6023V34.5985C27.6463 34.4614 25.7408 33.5248 24.4081 31.9782C23.0945 30.4538 22.2575 28.2433 22.0474 25.3843H23.1271C23.4899 30.1573 25.7705 32.5749 28.0092 33.1346L29.2517 33.4452V32.1644Z"
        stroke="white" stroke-width="2" />
    </g>
    <defs>
      <clipPath id="clip0_92_2572">
        <rect width="24" height="24" fill="white" transform="translate(18 18)" />
      </clipPath>
    </defs>
  </symbol>

  <symbol viewBox="0 0 60 60" fill="none" id="twitter-icon">
    <circle cx="30" cy="30" r="29.5" stroke="white" />
    <g clip-path="url(#clip0_92_2574)">
      <path
        d="M40 22.01C39 22.5 38.02 22.699 37 23C35.879 21.735 34.217 21.665 32.62 22.263C31.023 22.861 29.977 24.323 30 26V27C26.755 27.083 23.865 25.605 22 23C22 23 17.818 30.433 26 34C24.128 35.247 22.261 36.088 20 36C23.308 37.803 26.913 38.423 30.034 37.517C33.614 36.477 36.556 33.794 37.685 29.775C38.0218 28.5527 38.189 27.2899 38.182 26.022C38.18 25.773 39.692 23.25 40 22.009V22.01Z"
        stroke="white" stroke-width="1.5" stroke-linecap="round" stroke-linejoin="round" />
    </g>
    <defs>
      <clipPath id="clip0_92_2574">
        <rect width="24" height="24" fill="white" transform="translate(18 18)" />
      </clipPath>
    </defs>
  </symbol>

  <symbol viewBox="0 0 60 60" fill="none" id="youtube-icon">
    <circle cx="30" cy="30" r="29.5" stroke="white" />
    <g clip-path="url(#clip0_92_2575)">
      <path
        d="M35 23H25C22.7909 23 21 24.7909 21 27V33C21 35.2091 22.7909 37 25 37H35C37.2091 37 39 35.2091 39 33V27C39 24.7909 37.2091 23 35 23Z"
        stroke="white" stroke-width="1.5" stroke-linecap="round" stroke-linejoin="round" />
      <path d="M28 27L33 30L28 33V27Z" stroke="white" stroke-width="1.5" stroke-linecap="round"
        stroke-linejoin="round" />
    </g>
    <defs>
      <clipPath id="clip0_92_2575">
        <rect width="24" height="24" fill="white" transform="translate(18 18)" />
      </clipPath>
    </defs>
  </symbol>
</svg>
